{"asset":{"version":"2.0","generator":"OpenAI CHAINeS house-frame fallback"},"scene":0,"scenes":[{"name":"House Frame","nodes":[0,1,2,3,4,5,6,7,8,9,10,11,12,13,14,15,16,17,18,19,20,21,22,23]}],"nodes":[{"name":"Floor slab","mesh":1,"translation":[0,0.06,0],"scale":[6.2,0.12,4.2]},{"name":"Corner post -2.9 -1.9","mesh":0,"translation":[-2.9,1.55,-1.9],"scale":[0.18,3.1,0.18]},{"name":"Corner post -2.9 1.9","mesh":0,"translation":[-2.9,1.55,1.9],"scale":[0.18,3.1,0.18]},{"name":"Corner post 2.9 -1.9","mesh":0,"translation":[2.9,1.55,-1.9],"scale":[0.18,3.1,0.18]},{"name":"Corner post 2.9 1.9","mesh":0,"translation":[2.9,1.55,1.9],"scale":[0.18,3.1,0.18]},{"name":"Door post -0.75","mesh":0,"translation":[-0.75,1.25,1.9],"scale":[0.16,2.5,0.16]},{"name":"Door post 0.75","mesh":0,"translation":[0.75,1.25,1.9],"scale":[0.16,2.5,0.16]},{"name":"Door header","mesh":0,"translation":[0,2.5,1.9],"scale":[1.65,0.16,0.16]},{"name":"Front top beam","mesh":0,"translation":[0,3.08,1.9],"scale":[6.0,0.18,0.18]},{"name":"Back top beam","mesh":0,"translation":[0,3.08,-1.9],"scale":[6.0,0.18,0.18]},{"name":"Left top beam","mesh":0,"translation":[-2.9,3.08,0],"scale":[0.18,0.18,3.8]},{"name":"Right top beam","mesh":0,"translation":[2.9,3.08,0],"scale":[0.18,0.18,3.8]},{"name":"Front lower rail left","mesh":0,"translation":[-1.85,1.05,1.9],"scale":[2.0,0.12,0.12]},{"name":"Front lower rail right","mesh":0,"translation":[1.85,1.05,1.9],"scale":[2.0,0.12,0.12]},{"name":"Back lower rail","mesh":0,"translation":[0,1.05,-1.9],"scale":[6.0,0.12,0.12]},{"name":"Left lower rail","mesh":0,"translation":[-2.9,1.05,0],"scale":[0.12,0.12,3.8]},{"name":"Right lower rail","mesh":0,"translation":[2.9,1.05,0],"scale":[0.12,0.12,3.8]},{"name":"Roof ridge","mesh":0,"translation":[0,4.22,0],"scale":[6.0,0.16,0.16]},{"name":"Front rafter -2.9","mesh":0,"translation":[-2.9,3.65,0.95],"scale":[0.16,0.16,2.215761720041214],"rotation":[-0.2669335818958115,0,0,0.9637149282107609]},{"name":"Back rafter -2.9","mesh":0,"translation":[-2.9,3.65,-0.95],"scale":[0.16,0.16,2.215761720041214],"rotation":[0.2669335818958115,0,0,0.9637149282107609]},{"name":"Front rafter 0","mesh":0,"translation":[0,3.65,0.95],"scale":[0.16,0.16,2.215761720041214],"rotation":[-0.2669335818958115,0,0,0.9637149282107609]},{"name":"Back rafter 0","mesh":0,"translation":[0,3.65,-0.95],"scale":[0.16,0.16,2.215761720041214],"rotation":[0.2669335818958115,0,0,0.9637149282107609]},{"name":"Front rafter 2.9","mesh":0,"translation":[2.9,3.65,0.95],"scale":[0.16,0.16,2.215761720041214],"rotation":[-0.2669335818958115,0,0,0.9637149282107609]},{"name":"Back rafter 2.9","mesh":0,"translation":[2.9,3.65,-0.95],"scale":[0.16,0.16,2.215761720041214],"rotation":[0.2669335818958115,0,0,0.9637149282107609]}],"meshes":[{"name":"Frame beam","primitives":[{"attributes":{"POSITION":0,"NORMAL":1},"indices":2,"material":0}]},{"name":"Foundation","primitives":[{"attributes":{"POSITION":0,"NORMAL":1},"indices":2,"material":1}]}],"materials":[{"name":"IonCore frame","pbrMetallicRoughness":{"baseColorFactor":[0.12,0.55,0.78,1],"metallicFactor":0.45,"roughnessFactor":0.45}},{"name":"Foundation","pbrMetallicRoughness":{"baseColorFactor":[0.18,0.22,0.28,1],"metallicFactor":0.05,"roughnessFactor":0.8}}],"buffers":[{"uri":"data:application/octet-stream;base64,","byteLength":648}],"bufferViews":[{"buffer":0,"byteOffset":0,"byteLength":288,"target":34962},{"buffer":0,"byteOffset":288,"byteLength":288,"target":34962},{"buffer":0,"byteOffset":576,"byteLength":72,"target":34963}],"accessors":[{"bufferView":0,"componentType":5126,"count":24,"type":"VEC3","min":[-0.5,-0.5,-0.5],"max":[0.5,0.5,0.5]},{"bufferView":1,"componentType":5126,"count":24,"type":"VEC3"},{"bufferView":2,"componentType":5123,"count":36,"type":"SCALAR","min":[0],"max":[23]}]}