<svg viewBox="0 0 24 24" xmlns="http://www.w3.org/2000/svg" fill="none" stroke="url(#chaines)" stroke-width="1.8" stroke-linecap="round" stroke-linejoin="round" aria-hidden="true">
  <defs>
    <linearGradient id="chaines" x1="0%" y1="0%" x2="100%" y2="100%">
      <stop offset="0%" stop-color="#00C6FF" />
      <stop offset="100%" stop-color="#0072FF" />
    </linearGradient>
  </defs>
  <path d="M7 3H5a2 2 0 0 0-2 2v2"/>
  <path d="M17 3h2a2 2 0 0 1 2 2v2"/>
  <path d="M7 21H5a2 2 0 0 1-2-2v-2"/>
  <path d="M17 21h2a2 2 0 0 0 2-2v-2"/>
  <path d="m8 12 4-2.4 4 2.4-4 2.4-4-2.4Z" fill="url(#chaines)" fill-opacity="0.12"/>
  <path d="M12 9.6v4.8"/>
  <path d="m8 12 4 2.4 4-2.4"/>
</svg>
