<svg xmlns="http://www.w3.org/2000/svg" viewBox="0 0 72 64" role="img" aria-labelledby="title desc">
  <title id="title">CHAINeS POST wallet totem</title>
  <desc id="desc">A neon wolf medallion engraved on a wallet badge.</desc>
  <defs>
    <linearGradient id="panel" x1="0%" y1="0%" x2="100%" y2="100%">
      <stop offset="0%" stop-color="#0b1224" />
      <stop offset="100%" stop-color="#13213f" />
    </linearGradient>
    <linearGradient id="edge" x1="0%" y1="0%" x2="0%" y2="100%">
      <stop offset="0%" stop-color="#67e8f9" />
      <stop offset="100%" stop-color="#0ef3c5" />
    </linearGradient>
  </defs>
  <rect x="4" y="6" width="64" height="52" rx="12" fill="url(#panel)" stroke="#0ef3c5" stroke-width="2.5" />
  <rect x="10" y="14" width="48" height="30" rx="9" fill="#0f172a" stroke="#1e3a8a" />
  <circle cx="50" cy="28" r="8" fill="#0ef3c5" opacity="0.18" />
  <circle cx="50" cy="28" r="4" fill="#b9f27c" />
  <g transform="translate(18 18)">
    <rect x="-2" y="-2" width="28" height="28" rx="10" fill="rgba(14,243,197,0.1)" stroke="#38bdf8" />
    <path d="M12 0c-4 2-7 6-8 12 0 6 2 12 12 14 10-2 12-8 12-14-1-6-4-10-8-12l-4 8-4-8Z" fill="#0b1224" stroke="#67e8f9" stroke-width="1.8" />
    <path d="M8 14c0-3 3-6 6-6s6 3 6 6-3 6-6 6-6-3-6-6Z" fill="none" stroke="#5eead4" stroke-width="1.5" />
    <path d="M8 10 6 6m12 4 2-4" stroke="#0ef3c5" stroke-width="1.6" stroke-linecap="round" />
    <path d="M9 16c-2 0-4 1-4 3s2 3 4 3 4-1 4-3-2-3-4-3Zm10 0c-2 0-4 1-4 3s2 3 4 3 4-1 4-3-2-3-4-3Z" fill="#0b1224" stroke="#38bdf8" stroke-width="1.4" />
    <path d="M11 20h6l-3 4Z" fill="#0ef3c5" stroke="#0b1224" stroke-width="1.2" />
  </g>
  <path d="M8 42h18" stroke="url(#edge)" stroke-width="3" stroke-linecap="round" />
</svg>
